<svg id="Capa_1" enable-background="new 0 0 512 512" height="512" viewBox="0 0 512 512" width="512" xmlns="http://www.w3.org/2000/svg"><g><path d="m164.166 440.414c11.213 0 21.274-6.679 25.632-17.016 1.395-3.308-.156-7.12-3.464-8.514-3.309-1.395-7.12.156-8.515 3.464-2.321 5.507-7.681 9.065-13.653 9.065-5.973 0-11.332-3.559-13.654-9.065-1.394-3.309-5.206-4.859-8.514-3.464s-4.859 5.207-3.465 8.514c4.358 10.337 14.419 17.016 25.633 17.016z"/><path d="m154.085 402.891h20.172c4.142 0 7.5-3.358 7.5-7.5s-3.358-7.5-7.5-7.5h-20.172c-4.142 0-7.5 3.358-7.5 7.5s3.358 7.5 7.5 7.5z"/><path d="m98.812 376.429h2.691c-.264 1.491-.397 3.037-.397 4.599 0 9.031 4.453 16.379 9.927 16.379s9.928-7.348 9.928-16.379c0-9.032-4.454-16.379-9.928-16.379-.345 0-.701.031-1.014.09h-11.207c-3.223 0-5.845 2.622-5.845 5.845s2.622 5.845 5.845 5.845z"/><path d="m217.308 397.407c5.474 0 9.928-7.348 9.928-16.379 0-1.56-.133-3.105-.397-4.599h3.437c3.223 0 5.845-2.622 5.845-5.845s-2.622-5.845-5.845-5.845l-11.91.004c-.356-.062-.712-.094-1.057-.094-5.474 0-9.928 7.348-9.928 16.379-.001 9.031 4.452 16.379 9.927 16.379z"/><path d="m512 394.993c0-2.887-.32-5.767-.951-8.56-1.627-7.208-6.1-12.722-12.072-15.62 17.469-62.559 14.409-107.422-9.139-133.4-24.706-27.256-63.081-23.918-73.139-22.491-11.508-4.848-64.968-24.746-118.203-1.26-11.77 5.193-21.726 11.881-29.86 20.022-17.801-17.226-41.642-26.966-66.626-26.966h-75.68c-52.835 0-95.82 42.984-95.82 95.82 0 4.142 3.358 7.5 7.5 7.5s7.5-3.358 7.5-7.5c0-44.564 36.256-80.82 80.82-80.82h75.68c21.441 0 41.885 8.505 56.979 23.513-9.245 13.336-14.804 29.567-16.604 48.608-1.045 11.055-.75 22.101.279 32.666-13.057-13.136-20.916-28.906-21.015-29.109-1.064-2.176-3.114-3.705-5.503-4.104-2.388-.397-4.824.381-6.538 2.095-16.687 16.687-54.413 32.293-100.915 41.747-17.891 3.628-35.503 5.92-48.321 6.29-4.056.117-7.284 3.439-7.284 7.497v14.279c-1.84-.674-3.798-1.157-5.873-1.389-.574-.064-1.141-.09-1.707-.116v-31.157c0-4.142-3.358-7.5-7.5-7.5s-7.5 3.358-7.5 7.5v35.6c-4.309 3.206-7.478 7.973-8.802 13.838-.649 2.876-.979 5.841-.979 8.812 0 12.684 5.961 23.994 15.221 31.301v18.744h-.651c-19.462.001-35.297 15.836-35.297 35.299 0 9.417 3.669 18.28 10.343 24.967 6.677 6.662 15.54 10.332 24.956 10.332h257.737c15.063 0 28.009-9.365 33.044-22.853 6.44 1.669 13.19 2.559 20.145 2.559h54.198c36.419 0 67.237-24.365 77.058-57.645 19.382-2.106 34.519-18.566 34.519-38.499zm-254.681-99.742c3.121-33.022 18.57-55.221 47.231-67.865 52.453-23.141 107.442 1.836 107.984 2.087 1.429.667 3.045.865 4.592.571.391-.075 39.389-7.154 61.666 17.52 19.791 21.922 21.527 63.873 5.095 121.495-1.08.22-2.114.526-3.121.877v-10.089c0-3.716-2.722-6.873-6.398-7.418-13.768-2.045-25.691-10.292-35.439-24.512-7.65-11.16-10.98-21.925-11.01-22.02-.76-2.527-2.792-4.468-5.351-5.112s-5.269.103-7.135 1.97c-30.202 30.203-94.471 44.458-143.068 51.098-3.715.508-6.484 3.681-6.484 7.431v8.651c-4.671-19.345-11.134-47.471-8.562-74.684zm1.521 88.358c1.174.131 7.02 1.125 7.041 7.835v19.35c0 2.297.12 4.566.31 6.814-9.58-3.054-16.54-12.036-16.54-22.615 0-1.775.196-3.544.583-5.256 1.485-6.579 7.423-6.257 8.606-6.128zm-147.162-31.774c57.601-11.71 87.257-28.675 101.197-39.455 5.949 9.744 17.325 25.766 32.972 36.203 1.425 7.652 3.043 14.777 4.554 21.129-7.326 2.413-12.933 8.454-14.801 16.722-.631 2.795-.951 5.675-.951 8.559 0 15.258 8.872 28.48 21.725 34.789-9.471 27.015-34.962 45.371-64.128 45.371h-56.169c-37.489 0-67.989-30.5-67.989-67.989v-20.018h.007c0-.053-.007-.104-.007-.157v-28.933c12.623-.861 27.793-3.018 43.59-6.221zm-75.339 33.446c1.591-7.046 7.955-6.699 9.215-6.562 1.252.14 7.46 1.2 7.535 8.304v20.141c0 2.508.131 4.984.35 7.436-10.233-3.082-17.71-12.588-17.71-23.813 0-1.86.206-3.713.61-5.506zm256.697 111.15h-257.737c-5.416 0-10.516-2.113-14.35-5.938-3.836-3.844-5.949-8.944-5.949-14.36 0-11.193 9.106-20.299 20.299-20.299h8.151c4.142 0 7.5-3.358 7.5-7.5v-18.865c1.784.445 3.614.774 5.484.969 10.088 34.464 41.963 59.716 79.644 59.716h56.169c35.088 0 65.82-21.773 77.766-53.979 6.97 20.873 22.273 37.958 41.958 47.276-2.934 7.666-10.329 12.98-18.935 12.98zm172.731-85.637c0 36.03-29.313 65.343-65.344 65.343h-54.198c-36.03 0-65.344-29.313-65.344-65.343v-42.999c45.949-6.748 103.205-20.239 136.835-47.029 2.027 4.395 4.848 9.749 8.576 15.242 10.61 15.638 24.157 25.883 39.475 29.939zm14.69 6.815c.19-2.249.31-4.518.31-6.815v-19.314h.001c0-6.744 5.867-7.739 7.043-7.871 1.18-.13 7.121-.453 8.607 6.128.386 1.71.582 3.479.582 5.256 0 10.581-6.961 19.564-16.543 22.616z"/><path d="m322.052 369.886c-5.218 0-9.463 7.038-9.463 15.688s4.245 15.689 9.463 15.689 9.463-7.038 9.463-15.689-4.245-15.688-9.463-15.688z"/><path d="m424.599 369.886c-5.218 0-9.463 7.038-9.463 15.688s4.245 15.689 9.463 15.689 9.463-7.038 9.463-15.689-4.246-15.688-9.463-15.688z"/><path d="m394.807 413.638c-3.31-1.394-7.119.157-8.515 3.464-2.205 5.229-7.294 8.608-12.965 8.608s-10.76-3.379-12.965-8.608c-1.395-3.308-5.206-4.859-8.515-3.464-3.308 1.395-4.858 5.207-3.464 8.515 4.241 10.058 14.032 16.558 24.943 16.558s20.702-6.5 24.943-16.558c1.396-3.309-.155-7.121-3.462-8.515z"/><path d="m363.593 406.935h19.465c4.143 0 7.5-3.358 7.5-7.5s-3.357-7.5-7.5-7.5h-19.465c-4.143 0-7.5 3.358-7.5 7.5s3.357 7.5 7.5 7.5z"/><path d="m214.833 182.569c14.091 10.519 29.849 20.316 45.569 28.332 1.07.545 2.238.818 3.407.818 1.171 0 2.342-.274 3.414-.822 52.587-26.881 113.996-77.302 113.996-130.938 0-3.073-.157-6.201-.467-9.297-.413-4.122-4.093-7.127-8.21-6.716-4.121.413-7.128 4.088-6.716 8.21.261 2.601.393 5.227.393 7.803 0 42.91-50.882 88.638-102.413 115.811-13.837-7.29-27.597-15.962-40.01-25.229-54.281-40.384-62.386-74.087-62.386-90.583 0-35.505 24.027-64.39 53.56-64.39 22.794 0 41.339 22.434 41.339 50.01 0 4.142 3.357 7.5 7.5 7.5s7.5-3.358 7.5-7.5c0-27.576 18.546-50.01 41.341-50.01 16.52 0 31.869 8.986 42.117 24.662 1.253 1.911 2.406 3.884 3.426 5.864 1.898 3.683 6.424 5.129 10.103 3.231 3.683-1.898 5.129-6.421 3.231-10.103-1.259-2.442-2.677-4.87-4.21-7.208-13.065-19.984-32.991-31.445-54.667-31.445-20.855 0-39.101 13.142-48.841 32.627-9.74-19.485-27.984-32.627-48.839-32.627-37.804 0-68.56 35.614-68.56 79.39 0 44.988 42.876 83.603 68.423 102.61z"/><path d="m98.212 172.243c1.464 1.464 3.384 2.197 5.303 2.197s3.839-.732 5.303-2.197c2.929-2.929 2.929-7.678 0-10.606l-21.148-21.149c-2.929-2.929-7.678-2.929-10.606 0-2.929 2.929-2.929 7.678 0 10.607z"/><path d="m118.001 155.206c1.145 2.983 3.988 4.814 7.003 4.814.893 0 1.802-.161 2.686-.5 3.867-1.484 5.799-5.822 4.314-9.689l-8.117-21.149c-1.484-3.867-5.821-5.799-9.689-4.314-3.867 1.484-5.799 5.822-4.314 9.689z"/><path d="m65.257 187.312 21.149 8.118c.884.339 1.792.5 2.686.5 3.015 0 5.858-1.832 7.003-4.814 1.484-3.867-.447-8.205-4.314-9.689l-21.149-8.118c-3.868-1.484-8.205.448-9.689 4.314-1.485 3.867.447 8.205 4.314 9.689z"/><path d="m418.805 172.243c1.465 1.465 3.384 2.197 5.304 2.197 1.919 0 3.839-.732 5.303-2.197l21.149-21.148c2.93-2.929 2.93-7.678.001-10.607-2.93-2.928-7.679-2.929-10.606 0l-21.149 21.149c-2.931 2.928-2.931 7.677-.002 10.606z"/><path d="m399.933 159.52c.884.339 1.792.5 2.686.5 3.016 0 5.858-1.832 7.004-4.814l8.118-21.149c1.484-3.867-.447-8.205-4.314-9.69s-8.204.448-9.689 4.314l-8.118 21.149c-1.486 3.867.445 8.206 4.313 9.69z"/><path d="m431.528 191.115c1.146 2.983 3.988 4.814 7.004 4.814.893 0 1.802-.161 2.686-.5l21.148-8.118c3.867-1.484 5.799-5.823 4.314-9.689s-5.819-5.8-9.689-4.314l-21.148 8.118c-3.867 1.484-5.799 5.823-4.315 9.689z"/></g></svg>