<svg id="Capa_1" enable-background="new 0 0 512 512" height="512" viewBox="0 0 512 512" width="512" xmlns="http://www.w3.org/2000/svg"><g><path d="m473.271 28.859h-67.713c-.659-15.035-13.093-27.065-28.288-27.065s-27.628 12.03-28.287 27.065h-185.966c-.659-15.035-13.093-27.065-28.288-27.065s-27.628 12.03-28.287 27.065h-67.713c-21.355 0-38.729 17.374-38.729 38.729v328.428c0 4.143 3.358 7.5 7.5 7.5s7.5-3.357 7.5-7.5v-328.428c0-13.084 10.645-23.729 23.729-23.729h67.682v25.076h-48.825c-10.334 0-18.742 8.407-18.742 18.742v363.709c0 10.335 8.408 18.742 18.742 18.742h315.508c7.952 0 15.72-3.241 21.312-8.893l70.079-70.808c5.592-5.651 8.672-13.142 8.672-21.092 0-24.858 0-193.009 0-212.837 0-4.143-3.357-7.5-7.5-7.5s-7.5 3.357-7.5 7.5v26.837h-404.313v-95.657c0-2.063 1.679-3.742 3.742-3.742h48.843c.391 15.277 12.931 27.585 28.3 27.585s27.909-12.308 28.301-27.585h185.941c.391 15.277 12.931 27.585 28.3 27.585s27.909-12.308 28.301-27.585h48.843c2.063 0 3.742 1.679 3.742 3.742v31.643c0 4.143 3.357 7.5 7.5 7.5s7.5-3.357 7.5-7.5v-31.643c0-10.335-8.407-18.742-18.742-18.742h-48.825v-25.077h67.682c13.084 0 23.729 10.645 23.729 23.729v403.89c0 13.084-10.645 23.729-23.729 23.729h-434.543c-13.084-.001-23.729-10.645-23.729-23.729v-40.462c0-4.143-3.358-7.5-7.5-7.5s-7.5 3.357-7.5 7.5v40.462c0 21.355 17.374 38.729 38.729 38.729h434.543c21.355 0 38.729-17.373 38.729-38.729v-403.89c-.001-21.355-17.374-38.729-38.73-38.729zm-83.611 415.848v-53.74c0-2.383 1.939-4.322 4.322-4.322h53.143zm68.496-246.37v173.308h-64.174c-10.654 0-19.322 8.668-19.322 19.322v64.162h-317.074c-2.063 0-3.742-1.679-3.742-3.742v-253.05zm-295.108-154.478h185.904v25.076h-185.904zm-15 39.343c0 7.344-5.975 13.318-13.319 13.318s-13.319-5.975-13.319-13.318v-53.089c0-7.345 5.975-13.319 13.319-13.319s13.319 5.975 13.319 13.319zm242.542 0c0 7.344-5.975 13.318-13.319 13.318s-13.318-5.975-13.318-13.318v-53.089c0-7.345 5.975-13.319 13.318-13.319 7.345 0 13.319 5.975 13.319 13.319z"/><path d="m227.119 133.501c0 15.615 12.704 28.319 28.319 28.319s28.319-12.704 28.319-28.319-12.704-28.318-28.319-28.318-28.319 12.703-28.319 28.318zm41.638 0c0 7.345-5.975 13.319-13.319 13.319s-13.319-5.975-13.319-13.319 5.975-13.318 13.319-13.318 13.319 5.974 13.319 13.318z"/><path d="m99.337 139.721c-4.142 0-7.5 3.357-7.5 7.5s3.358 7.5 7.5 7.5h70.785c4.142 0 7.5-3.357 7.5-7.5s-3.358-7.5-7.5-7.5z"/><path d="m341.879 140.241c-4.143 0-7.5 3.357-7.5 7.5s3.357 7.5 7.5 7.5h70.784c4.143 0 7.5-3.357 7.5-7.5s-3.357-7.5-7.5-7.5z"/><path d="m138.792 425.991c4.092 4.408 11.933 8.33 19.272 8.242 6.891-.001 13.402-2.613 18.396-7.395l28.674-27.459 22.569 23.649c6.076 6.547 16.472 11.288 26.201 11.204 9.367 0 18.22-3.552 25.008-10.052l28.619-27.406c2.991-2.865 3.094-7.612.229-10.604-2.866-2.991-7.613-3.093-10.604-.229l-28.619 27.406c-4.093 3.92-9.457 5.995-15.131 5.88-5.665-.127-10.939-2.455-14.851-6.554l-22.587-23.668 19.375-18.554c11.756-11.259 17.132-27.569 14.382-43.632-.699-4.082-4.57-6.822-8.659-6.127-4.083.699-6.826 4.576-6.126 8.658 1.909 11.146-1.819 22.46-9.972 30.267l-58.882 56.388c-2.245 2.149-5.206 3.319-8.298 3.225-3.106-.069-5.999-1.346-8.144-3.594l-54.729-57.347c-6.257-6.556-9.586-15.155-9.374-24.215.211-9.059 3.938-17.493 10.494-23.75 12.754-12.298 34.623-12.798 47.964 1.12l10.653 11.163c1.375 1.44 3.266 2.275 5.257 2.32 2.009.04 3.918-.704 5.356-2.081l12.773-12.232c10.848-10.391 27.488-12.391 40.467-4.868 3.583 2.077 8.172.857 10.25-2.727 2.077-3.584.856-8.173-2.728-10.25-18.723-10.854-42.722-7.971-58.364 7.011l-7.347 7.036-5.466-5.728c-3.951-4.14-8.505-7.498-13.472-9.99-.662-15.733 5.338-30.752 16.862-41.749 10.562-10.081 24.43-15.449 39.012-15.103 14.596.341 28.185 6.345 38.264 16.906l15.985 16.75c1.375 1.44 3.266 2.275 5.257 2.32 2.013.045 3.918-.703 5.356-2.081l19.166-18.354c21.766-20.847 56.435-20.094 77.279 1.672 10.098 10.544 15.485 24.39 15.169 38.985-.315 14.596-6.297 28.195-16.841 38.293l-34.448 32.988c-2.991 2.865-3.094 7.612-.229 10.604 2.258 2.186 6.689 3.558 10.604.229l34.448-32.988c27.74-26.566 28.696-70.747 2.131-98.487-26.569-27.74-70.749-28.697-98.488-2.131l-13.739 13.158-10.798-11.314c-12.846-13.461-30.165-21.112-48.766-21.547-18.592-.436-36.258 6.401-49.718 19.247-13.178 12.575-20.834 29.932-21.504 47.941-13.129-2.22-30.558 2.818-40.703 13.032-9.454 9.022-14.829 21.187-15.134 34.252-.305 13.064 4.496 25.467 13.519 34.92z"/></g></svg>