<?xml version="1.0" encoding="UTF-8" standalone="no"?>
<svg
   xmlns:dc="http://purl.org/dc/elements/1.1/"
   xmlns:cc="http://creativecommons.org/ns#"
   xmlns:rdf="http://www.w3.org/1999/02/22-rdf-syntax-ns#"
   xmlns:svg="http://www.w3.org/2000/svg"
   xmlns="http://www.w3.org/2000/svg"
   xmlns:sodipodi="http://sodipodi.sourceforge.net/DTD/sodipodi-0.dtd"
   xmlns:inkscape="http://www.inkscape.org/namespaces/inkscape"
   id="Capa_1"
   enable-background="new 0 0 512 512"
   height="512"
   viewBox="0 0 512 512"
   width="512"
   version="1.1"
   sodipodi:docname="gallery.svg"
   inkscape:version="1.0.2-2 (e86c870879, 2021-01-15)">
  <metadata
     id="metadata19">
    <rdf:RDF>
      <cc:Work
         rdf:about="">
        <dc:format>image/svg+xml</dc:format>
        <dc:type
           rdf:resource="http://purl.org/dc/dcmitype/StillImage" />
        <dc:title></dc:title>
      </cc:Work>
    </rdf:RDF>
  </metadata>
  <defs
     id="defs17" />
  <sodipodi:namedview
     pagecolor="#ffffff"
     bordercolor="#666666"
     borderopacity="1"
     objecttolerance="10"
     gridtolerance="10"
     guidetolerance="10"
     inkscape:pageopacity="0"
     inkscape:pageshadow="2"
     inkscape:window-width="1366"
     inkscape:window-height="705"
     id="namedview15"
     showgrid="false"
     inkscape:zoom="0.52539063"
     inkscape:cx="353.8365"
     inkscape:cy="341.39959"
     inkscape:window-x="-8"
     inkscape:window-y="-8"
     inkscape:window-maximized="1"
     inkscape:current-layer="Capa_1" />
  <path
     d="m 310.19189,92.853609 h -21.59902 a 7.2723976,7.4025305 0 0 1 0,-14.805061 h 21.59902 a 7.2723976,7.4025305 0 0 1 0,14.805061 z"
     id="path2"
     style="stroke-width:7.33718" />
  <path
     d="M 373.31629,413.53122 H 36.895187 A 33.562114,34.162678 0 0 1 3.3694409,379.40555 V 112.10019 A 33.525752,34.125665 0 0 1 36.895187,78.048548 H 165.68935 a 7.2723976,7.4025305 0 0 1 0,14.805061 H 36.895187 A 18.966412,19.305799 0 0 0 17.914238,112.10019 v 267.30536 a 19.002774,19.342812 0 0 0 18.980949,19.32061 H 373.31629 a 7.2723986,7.4025315 0 0 1 0,14.80506 z"
     id="path4"
     style="stroke-width:7.33718" />
  <path
     d="m 237.68609,92.853609 h -21.08996 a 7.2723976,7.4025305 0 0 1 0,-14.805061 h 21.08996 a 7.2723976,7.4025305 0 0 1 0,14.805061 z"
     id="path6"
     style="stroke-width:7.33718" />
  <path
     d="m 457.02159,320.51842 a 7.2723974,7.4025303 0 0 1 -7.2724,-7.36551 V 112.10019 A 18.966412,19.305799 0 0 0 430.76823,92.853609 h -69.66956 a 7.2723976,7.4025305 0 0 1 0,-14.805061 h 69.66956 a 33.525752,34.125665 0 0 1 33.52576,34.051642 v 200.97869 a 7.2723974,7.4025303 0 0 1 -7.2724,7.43954 z"
     id="path8"
     style="stroke-width:7.33718" />
  <path
     d="M 369.51283,373.46872 H 63.141271 a 20.420892,20.786305 0 0 1 -20.36271,-20.8011 V 138.85293 a 20.362713,20.727085 0 0 1 20.36271,-20.72708 H 404.50761 a 20.362713,20.727085 0 0 1 20.36271,20.72708 v 173.95946 a 7.2724,7.4025329 0 0 1 -14.5448,0 V 138.85293 a 5.8179179,5.9220242 0 0 0 -5.81791,-5.92203 H 63.141271 a 5.8179179,5.9220242 0 0 0 -5.817913,5.92203 v 213.81469 a 5.8542799,5.9590369 0 0 0 5.817913,5.99604 H 369.51283 a 7.2723986,7.4025315 0 1 1 0,14.80506 z"
     id="path10"
     style="stroke-width:7.33718" />
  <path
     d="M 155.04256,373.46872 A 7.2723974,7.4025303 0 0 1 149.66098,361.0917 L 280.98594,214.10706 a 7.2723974,7.4025303 0 0 1 9.91954,-0.79948 l 120.35818,97.96508 a 7.2745282,7.4046992 0 1 1 -9.0905,11.56275 L 287.14565,229.20081 160.45323,371.04069 a 7.2723974,7.4025303 0 0 1 -5.41067,2.42803 z"
     id="path12"
     style="stroke-width:7.33718" />
  <path
     d="M 50.029139,316.52106 A 7.2723974,7.4025303 0 0 1 45.003915,303.7739 l 78.767335,-76.71241 a 7.2723974,7.4025303 0 0 1 10.01409,0 l 78.44008,75.13567 a 7.2723974,7.4025303 0 1 1 -9.97046,10.77808 l -73.41485,-70.32403 -73.785748,71.81935 a 7.2723974,7.4025303 0 0 1 -5.025223,2.0505 z"
     id="path14"
     style="stroke-width:7.33718" />
  <path
     d="m 192.25542,226.38046 a 33.453028,34.05164 0 1 1 33.45303,-34.05165 33.496662,34.096054 0 0 1 -33.45303,34.05165 z m 0,-53.29823 a 18.908233,19.246579 0 1 0 18.90823,19.24658 18.908233,19.246579 0 0 0 -18.90823,-19.25398 z"
     id="path16"
     style="stroke-width:7.33718" />
  <path
     d="m 436.69524,456.7916 a 75.742019,77.097353 0 1 1 75.74201,-77.09735 75.829287,77.186183 0 0 1 -75.74201,77.09735 z m 0,-139.38964 a 61.197225,62.292293 0 1 0 61.19722,62.29229 61.269948,62.366318 0 0 0 -61.19722,-62.29229 z"
     id="path18"
     style="stroke-width:7.33718" />
  <path
     d="m 436.69524,421.19284 a 7.2723974,7.4025303 0 0 1 -4.6907,-1.7396 c -5.61429,-4.81904 -33.65666,-29.75077 -33.65666,-47.51684 a 26.72606,27.204299 0 0 1 25.91883,-27.90754 24.47889,24.916917 0 0 1 12.42853,3.47919 24.413438,24.850295 0 0 1 12.42125,-3.47919 26.72606,27.204299 0 0 1 25.91155,27.90754 c 0,17.76607 -28.02781,42.6978 -33.64938,47.51684 a 7.2723974,7.4025303 0 0 1 -4.68342,1.7396 z m -12.42853,-62.35892 a 12.210355,12.428849 0 0 0 -11.37403,13.10248 c 0,6.42539 11.63584,20.66047 23.80256,32.00114 12.18126,-11.34067 23.788,-25.56835 23.788,-32.00114 a 12.203083,12.421446 0 0 0 -11.36675,-13.10248 10.552248,10.741071 0 0 0 -7.35239,3.2349 7.2723974,7.4025303 0 0 1 -10.13046,0 10.603156,10.792889 0 0 0 -7.36693,-3.2349 z"
     id="path20"
     style="stroke-width:7.33718" />
</svg>
