<?xml version="1.0" encoding="UTF-8" standalone="no"?>
<svg
   xmlns:dc="http://purl.org/dc/elements/1.1/"
   xmlns:cc="http://creativecommons.org/ns#"
   xmlns:rdf="http://www.w3.org/1999/02/22-rdf-syntax-ns#"
   xmlns:svg="http://www.w3.org/2000/svg"
   xmlns="http://www.w3.org/2000/svg"
   xmlns:sodipodi="http://sodipodi.sourceforge.net/DTD/sodipodi-0.dtd"
   xmlns:inkscape="http://www.inkscape.org/namespaces/inkscape"
   version="1.1"
   x="0px"
   y="0px"
   viewBox="0 0 100 125"
   style="enable-background:new 0 0 100 100;"
   xml:space="preserve"
   id="svg18"
   sodipodi:docname="noun_love story gallery_976652.svg"
   inkscape:version="1.0.2-2 (e86c870879, 2021-01-15)"><metadata
     id="metadata24"><rdf:RDF><cc:Work
         rdf:about=""><dc:format>image/svg+xml</dc:format><dc:type
           rdf:resource="http://purl.org/dc/dcmitype/StillImage" /></cc:Work></rdf:RDF></metadata><defs
     id="defs22" /><sodipodi:namedview
     pagecolor="#ffffff"
     bordercolor="#666666"
     borderopacity="1"
     objecttolerance="10"
     gridtolerance="10"
     guidetolerance="10"
     inkscape:pageopacity="0"
     inkscape:pageshadow="2"
     inkscape:window-width="1366"
     inkscape:window-height="705"
     id="namedview20"
     showgrid="false"
     inkscape:zoom="4.304"
     inkscape:cx="50"
     inkscape:cy="16.031599"
     inkscape:window-x="-8"
     inkscape:window-y="-8"
     inkscape:window-maximized="1"
     inkscape:current-layer="svg18" /><style
     type="text/css"
     id="style2">
	.st0{fill:#FFFFFF;}
</style><g
     id="g12"><g
       id="g6"><path
         class="st0"
         d="M43.3,34.1c-4-3.1-9.8-2.7-13.5,0.9c-4,4-4,10.5,0,14.5l13.5,13.5l13.5-13.5c4-4,4-10.5,0-14.5    C53.1,31.4,47.3,31.1,43.3,34.1z M54.6,37.2c2.8,2.8,2.8,7.5,0,10.3L43.3,58.8L31.9,47.5c-2.8-2.8-2.8-7.5,0-10.3    c1.4-1.4,3.2-2.1,5.2-2.1c1.9,0,3.8,0.8,5.2,2.1l1.1,1.1l1.1-1.1c1.4-1.4,3.2-2.1,5.2-2.1C51.4,35,53.2,35.8,54.6,37.2z     M67.9,11.8c0.8,0,1.5,0.7,1.5,1.5s-0.7,1.5-1.5,1.5H19.8c-0.8,0-1.5-0.7-1.5-1.5s0.7-1.5,1.5-1.5H67.9z M51.8,76.8    c0,0.5-0.1,1-0.1,1.5s0,1,0.1,1.5H24.2c-5.5,0-9.9-5.2-9.9-11.5v-55c0-3.6,2.6-6.5,5.7-6.5h50.7c0.8,0,1.5,0.7,1.5,1.5    s-0.7,1.5-1.5,1.5H20c-1.5,0-2.7,1.6-2.7,3.5s1.2,3.5,2.7,3.5h50.8c0.8,0,1.5,0.7,1.5,1.5v41.1c-0.5,0-1-0.1-1.5-0.1s-1,0-1.5,0.1    V19.8H20c-1,0-1.9-0.3-2.7-0.8v49.3c0,4.7,3.1,8.5,6.9,8.5H51.8z M70.7,61.8c-9.1,0-16.5,7.4-16.5,16.5s7.4,16.5,16.5,16.5    s16.5-7.4,16.5-16.5S79.8,61.8,70.7,61.8z M70.7,91.8c-7.4,0-13.5-6.1-13.5-13.5s6.1-13.5,13.5-13.5s13.5,6.1,13.5,13.5    S78.2,91.8,70.7,91.8z M69.9,74.1c0-0.8,0.7-1.5,1.5-1.5s1.5,0.7,1.5,1.5c0,0.8-0.7,1.5-1.5,1.5S69.9,75,69.9,74.1z M68,74l5,9.9    H61.9c-0.9,0-1.5-1-1-1.8l5-8.2C66.5,73.1,67.6,73.1,68,74z M79.1,83.9h-4.9h-0.3l-2.5-4.7l2.6-3.5c0.7-0.9,2.1-0.9,2.8,0.1    l3.7,5.5C81.2,82.3,80.4,83.9,79.1,83.9z"
         id="path4" /></g><g
       id="g10"><path
         d="M43.3,34.1c-4-3.1-9.8-2.7-13.5,0.9c-4,4-4,10.5,0,14.5l13.5,13.5l13.5-13.5c4-4,4-10.5,0-14.5    C53.1,31.4,47.3,31.1,43.3,34.1z M54.6,37.2c2.8,2.8,2.8,7.5,0,10.3L43.3,58.8L31.9,47.5c-2.8-2.8-2.8-7.5,0-10.3    c1.4-1.4,3.2-2.1,5.2-2.1c1.9,0,3.8,0.8,5.2,2.1l1.1,1.1l1.1-1.1c1.4-1.4,3.2-2.1,5.2-2.1C51.4,35,53.2,35.8,54.6,37.2z     M67.9,11.8c0.8,0,1.5,0.7,1.5,1.5s-0.7,1.5-1.5,1.5H19.8c-0.8,0-1.5-0.7-1.5-1.5s0.7-1.5,1.5-1.5H67.9z M51.8,76.8    c0,0.5-0.1,1-0.1,1.5s0,1,0.1,1.5H24.2c-5.5,0-9.9-5.2-9.9-11.5v-55c0-3.6,2.6-6.5,5.7-6.5h50.7c0.8,0,1.5,0.7,1.5,1.5    s-0.7,1.5-1.5,1.5H20c-1.5,0-2.7,1.6-2.7,3.5s1.2,3.5,2.7,3.5h50.8c0.8,0,1.5,0.7,1.5,1.5v41.1c-0.5,0-1-0.1-1.5-0.1s-1,0-1.5,0.1    V19.8H20c-1,0-1.9-0.3-2.7-0.8v49.3c0,4.7,3.1,8.5,6.9,8.5H51.8z M70.7,61.8c-9.1,0-16.5,7.4-16.5,16.5s7.4,16.5,16.5,16.5    s16.5-7.4,16.5-16.5S79.8,61.8,70.7,61.8z M70.7,91.8c-7.4,0-13.5-6.1-13.5-13.5s6.1-13.5,13.5-13.5s13.5,6.1,13.5,13.5    S78.2,91.8,70.7,91.8z M69.9,74.1c0-0.8,0.7-1.5,1.5-1.5s1.5,0.7,1.5,1.5c0,0.8-0.7,1.5-1.5,1.5S69.9,75,69.9,74.1z M68,74l5,9.9    H61.9c-0.9,0-1.5-1-1-1.8l5-8.2C66.5,73.1,67.6,73.1,68,74z M79.1,83.9h-4.9h-0.3l-2.5-4.7l2.6-3.5c0.7-0.9,2.1-0.9,2.8,0.1    l3.7,5.5C81.2,82.3,80.4,83.9,79.1,83.9z"
         id="path8" /></g></g></svg>
