<svg height="512pt" viewBox="0 -94 512.00025 512" width="512pt" xmlns="http://www.w3.org/2000/svg"><path d="m501.96875 0h-364.453125c-5.539063 0-10.03125 4.492188-10.03125 10.03125v80.484375c-13.191406-8.441406-28.53125-12.972656-44.574219-12.972656-22.15625 0-42.984375 8.628906-58.652344 24.296875-32.34375 32.34375-32.34375 84.96875 0 117.308594l99.917969 99.917968c3.484375 3.484375 8.054688 5.222656 12.632813 5.222656 4.574218 0 9.148437-1.738281 12.632812-5.222656l67.464844-67.464844h108.808594l127.96875 71.09375c1.527344.851563 3.203125 1.265626 4.871094 1.265626 2.386718 0 4.753906-.851563 6.628906-2.503907 3.1875-2.804687 4.261718-7.3125 2.683594-11.253906l-23.441407-58.601563h57.542969c5.539062 0 10.03125-4.492187 10.03125-10.03125v-231.539062c0-5.539062-4.488281-10.03125-10.03125-10.03125zm-365.160156 303.332031-98.363282-98.367187c-24.523437-24.519532-24.523437-64.417969 0-88.9375 11.875-11.878906 27.667969-18.421875 44.46875-18.421875 16.796876 0 32.589844 6.542969 44.46875 18.421875l2.332032 2.332031c2.050781 2.050781 4.765625 3.015625 7.453125 2.917969.117187.003906.230469.019531.347656.019531 3.894531 0 7.265625-2.226563 8.925781-5.46875 11.855469-11.75 27.558594-18.222656 44.261719-18.222656 16.796875 0 32.59375 6.542969 44.46875 18.421875 11.878906 11.875 18.421875 27.667968 18.421875 44.46875 0 16.796875-6.542969 32.589844-18.421875 44.46875zm355.132812-71.789062h-62.332031c-3.328125 0-6.441406 1.648437-8.308594 4.40625-1.863281 2.757812-2.242187 6.257812-1.003906 9.347656l18.464844 46.164063-105.578125-58.65625c-1.488282-.828126-3.167969-1.261719-4.871094-1.261719h-91.34375l12.390625-12.394531c15.667969-15.664063 24.296875-36.496094 24.296875-58.652344s-8.628906-42.988282-24.296875-58.65625c-15.667969-15.667969-36.5-24.296875-58.65625-24.296875-15.46875 0-30.285156 4.222656-43.15625 12.09375v-69.574219h344.394531zm0 0"/><path d="m417.140625 117.839844h-120.929687c-5.539063 0-10.03125 4.492187-10.03125 10.03125 0 5.539062 4.492187 10.03125 10.03125 10.03125h120.929687c5.539063 0 10.03125-4.492188 10.03125-10.03125 0-5.539063-4.492187-10.03125-10.03125-10.03125zm0 0"/><path d="m294.207031 91.164062h81.742188c5.539062 0 10.03125-4.492187 10.03125-10.03125 0-5.539062-4.492188-10.03125-10.03125-10.03125h-81.742188c-5.539062 0-10.03125 4.492188-10.03125 10.03125 0 5.539063 4.492188 10.03125 10.03125 10.03125zm0 0"/><path d="m417.074219 168.488281h-120.863281c-5.539063 0-10.03125 4.488281-10.03125 10.027344s4.492187 10.03125 10.03125 10.03125h120.863281c5.539062 0 10.027343-4.492187 10.027343-10.03125s-4.488281-10.027344-10.027343-10.027344zm0 0"/><path d="m74.488281 189.914062c-3.933593-3.898437-10.285156-3.871093-14.1875.066407-3.898437 3.9375-3.867187 10.289062.070313 14.1875l35.292968 34.964843c1.957032 1.9375 4.507813 2.902344 7.058594 2.902344 2.582032 0 5.167969-.988281 7.128906-2.972656 3.898438-3.933594 3.867188-10.285156-.070312-14.183594zm0 0"/><path d="m138.695312 252.820312c-2.070312-5.136718-7.914062-7.621093-13.054687-5.554687-5.136719 2.070313-7.625 7.917969-5.554687 13.054687l.136718.332032c1.574219 3.910156 5.335938 6.285156 9.304688 6.285156 1.25 0 2.519531-.234375 3.746094-.730469 5.140624-2.070312 7.625-7.914062 5.554687-13.050781zm0 0"/><path d="m407.914062 85.074219c1.582032 3.894531 5.335938 6.257812 9.296876 6.257812 1.257812 0 2.535156-.234375 3.769531-.738281 5.132812-2.082031 7.605469-7.933594 5.523437-13.066406l-.136718-.332032c-2.082032-5.132812-7.933594-7.605468-13.066407-5.523437-5.132812 2.085937-7.605469 7.933594-5.519531 13.066406zm0 0"/></svg>